<?xml version="1.0" encoding="UTF-8"?>
<svg width="124px" height="32px" viewBox="0 0 124 32" version="1.1" xmlns="http://www.w3.org/2000/svg" xmlns:xlink="http://www.w3.org/1999/xlink">
    <!-- Generator: Sketch 60.1 (88133) - https://sketch.com -->
    <title>img/logo</title>
    <desc>Created with Sketch.</desc>
    <g id="Symbols" stroke="none" stroke-width="1" fill="none" fill-rule="evenodd">
        <g id="sec/row/nav/standerd-s-copy" transform="translate(-32.000000, -16.000000)" fill="#756AF8">
            <g id="Group" transform="translate(32.000000, 12.000000)">
                <g id="img/logo/blue-copy" transform="translate(0.000000, 4.000000)">
                    <g id="Group-17" transform="translate(0.000000, 0.592593)">
                        <path d="M64.2102258,5.92088889 C63.3119675,4.7362963 61.9266086,4.20059259 60.3294411,4.20059259 C59.6257856,4.20059259 58.6931158,4.32918519 58.0938813,4.58459259 C57.4952402,4.84 56.8028574,5.28266667 56.3715273,5.72237037 C55.9401971,6.16088889 55.4946278,6.73688889 55.2466278,7.34311111 C54.9986278,7.94933333 54.83369,8.80207407 54.83369,9.5042963 C54.83369,10.2225185 54.9131923,11.045037 55.1611923,11.6518519 C55.408599,12.2586667 55.8962928,12.9117037 56.3359292,13.3579259 C56.7749722,13.8053333 57.4738813,14.1911111 58.0659962,14.4459259 C58.6569244,14.7007407 59.4928861,14.8085926 60.1799292,14.8085926 C61.6815751,14.8085926 63.0117569,14.378963 64.2102258,13.1019259 L64.2102258,18.1922963 L63.7308383,18.36 C63.0117569,18.6154074 62.3413263,18.8026667 61.7177665,18.922963 C61.0942067,19.0420741 60.4795464,19.1025185 59.8720057,19.1025185 C58.626666,19.1025185 57.4317569,18.8666667 56.2890584,18.3961481 C55.1475464,17.9256296 54.1407139,17.2631111 53.2703407,16.4091852 C52.3993742,15.5558519 51.7004651,14.5419259 51.1730201,13.3691852 C50.6461684,12.1964444 50.3821493,10.9158519 50.3821493,9.52740741 C50.3821493,8.13955556 50.6420153,6.86666667 51.1611541,5.70992593 C51.6802928,4.55259259 52.3756421,3.55525926 53.2460153,2.71792593 C54.1163885,1.87940741 55.1267809,1.22637037 56.2777856,0.754666667 C57.4281971,0.284148148 58.6343789,0.0482962963 59.8963311,0.0482962963 C60.6154124,0.0482962963 61.3226278,0.124148148 62.0173837,0.275851852 C62.712733,0.428148148 63.4430871,0.663407407 64.2102258,0.982222222 L64.2102258,5.92088889 Z" id="Fill-1"></path>
                        <path d="M82.6500344,6.39976296 L82.6500344,13.3176889 C82.6500344,14.8335407 83.6295751,15.7976889 84.9395847,15.7976889 C86.249001,15.7976889 87.1496325,14.8335407 87.1496325,13.3176889 L87.1496325,6.39976296 L90.5587426,6.39976296 L90.5587426,14.1550222 C90.5587426,15.8154667 90.0716421,17.0599111 89.0968478,17.8895407 C88.120867,18.7191704 86.8761206,19.1339852 84.9395847,19.1339852 C83.0036421,19.1339852 81.6526947,18.7191704 80.6779005,17.8895407 C79.7025129,17.0599111 79.2148191,15.8154667 79.2148191,14.1550222 L79.2148191,6.39976296 L82.6500344,6.39976296 Z" id="Fill-3"></path>
                        <path d="M91.9284976,6.25564444 L95.4639809,6.25564444 L95.4639809,8.2669037 C95.907177,7.53268148 96.4494545,6.97031111 97.0908134,6.5792 C97.7321722,6.18808889 98.4809187,5.99312593 99.335866,5.99312593 L99.6912536,5.99312593 C99.8211866,5.99312593 100.464919,6.01860741 100.75445,6.33682963 L100.75445,9.24231111 C99.9208612,8.62601481 97.4420478,8.97801481 96.1860287,10.6485333 C95.7244402,11.2618667 95.4639809,12.1199407 95.4639809,13.2689778 L95.4639809,18.5353481 L91.9284976,18.5353481 L91.9284976,6.25564444 Z" id="Fill-5"></path>
                        <path d="M108.837589,9.05831111 C108.073416,8.6434963 107.270679,8.37505185 106.539732,8.31875556 C106.110775,8.28616296 104.849416,8.15342222 104.699904,9.32438519 C104.603789,10.0769778 105.295579,10.6269037 106.946144,10.9474963 C108.117914,11.1744593 110.215828,12.1480889 110.215828,14.3252741 C110.215828,15.0434963 110.090641,15.5110519 109.815349,16.0858667 C109.540651,16.6600889 109.070163,17.0719407 108.581282,17.4630519 C108.091809,17.8547556 107.649799,18.0479407 106.962756,18.2630519 C106.27512,18.4793481 105.751828,18.5516444 104.927139,18.5516444 C103.337684,18.5516444 101.837818,18.2606815 100.295234,17.3184593 L101.560746,14.6974222 C102.721837,15.5276444 103.972517,15.8257185 105.011388,15.8257185 C105.39288,15.8257185 106.304785,15.8618667 106.561684,14.7412741 C106.694584,14.1623111 106.250201,13.7611259 105.489589,13.5353481 C105.252268,13.4648296 104.947904,13.3889778 104.567005,13.3089778 C103.2831,13.0375704 102.597837,12.7140148 102.086411,12.1794963 C101.574392,11.6449778 101.281301,11.0417185 101.281301,10.1000889 C101.281301,9.41445926 101.387502,8.88586667 101.615923,8.32823704 C102.570545,5.99282963 105.51866,5.80616296 106.313684,5.80616296 C107.611828,5.80616296 108.801397,6.11075556 110.024191,6.63757037 L108.837589,9.05831111 Z" id="Fill-7"></path>
                        <path d="M119.807851,10.5076741 C119.671391,9.90145185 119.337956,9.35211852 118.910186,8.9853037 C118.483602,8.61848889 117.935391,8.3453037 117.191391,8.3453037 C116.351277,8.3453037 115.768655,8.63508148 115.364616,8.9853037 C114.959391,9.33671111 114.67342,9.87004444 114.567219,10.5076741 L119.807851,10.5076741 Z M114.462798,13.0208593 C114.462798,14.8881185 115.556846,16.0093037 117.237669,16.0093037 C118.766013,16.0093037 119.365841,15.438637 119.82387,14.6724148 L123.285784,14.6724148 C122.475927,17.4813037 120.452769,18.8851556 117.21453,18.8851556 C116.221344,18.8851556 115.312999,18.7298963 114.48831,18.4187852 C113.663621,18.1070815 112.956999,17.6644148 112.368444,17.0901926 C111.781076,16.5153778 111.326013,15.8291556 111.006224,15.0321185 C110.684655,14.2333037 110.525056,13.3402667 110.525056,12.350637 C110.525056,11.3296 110.676942,10.4081185 110.983085,9.58619259 C111.288635,8.76485926 111.723525,8.0656 112.288942,7.49197037 C112.853171,6.91715556 113.537248,6.4738963 114.339391,6.16278519 C115.141535,5.85226667 116.04632,5.69582222 117.054339,5.69582222 C118.046932,5.69582222 118.940444,5.85226667 119.735468,6.16278519 C120.528712,6.4738963 121.201516,6.92545185 121.750913,7.51567407 C122.300903,8.10648889 122.720961,8.82826667 123.011085,9.6816 C123.301803,10.5355259 123.446568,11.4973037 123.446568,12.5663407 L123.446568,13.0208593 L114.462798,13.0208593 Z" id="Fill-9"></path>
                        <polygon id="Fill-12" points="52.5788478 -0.000118518519 27.0704459 -0.000118518519 27.0704459 6.83425185 39.2752498 6.83425185 36.1224459 12.0212148 8.0842067 12.0212148 8.0842067 6.83425185 24.1229244 6.83425185 24.1229244 -0.000118518519 -0.000118660287 -0.000118518519 -0.000118660287 31.0398815 24.1229244 31.0398815 24.1229244 24.2043259 8.0842067 24.2043259 8.0842067 18.8561778 31.9687426 18.8561778 24.5625608 31.0398815 51.1893359 31.0398815 51.1893359 24.2043259 37.9438813 24.2043259"></polygon>
                        <path d="M71.720888,16.1563852 C69.7552804,16.1563852 68.2346488,14.6488296 68.2346488,12.686163 C68.2346488,10.7234963 69.7552804,9.20882963 71.720888,9.20882963 C73.6864957,9.20882963 75.1911081,10.7234963 75.1911081,12.686163 C75.1911081,14.6488296 73.6864957,16.1563852 71.720888,16.1563852 M78.1095579,10.0295704 C77.7654431,9.22364444 77.2836823,8.52971852 76.663089,7.94660741 C76.043089,7.36408889 75.310955,6.90957037 74.4666871,6.58245926 C73.6224191,6.25594074 72.706955,6.09179259 71.720888,6.09179259 C70.7199885,6.09179259 69.7968115,6.2594963 68.9525435,6.59431111 C68.1082756,6.92971852 67.3797014,7.38838519 66.7674144,7.97031111 C66.1539407,8.55342222 65.676333,9.23964444 65.3328115,10.0295704 C64.9886967,10.8189037 64.8166392,11.6692741 64.8166392,12.5789037 C64.8166392,13.5833481 64.9886967,14.4977185 65.3328115,15.3190519 C65.676333,16.1409778 66.1503809,16.8473481 66.7561416,17.4375704 C67.3607158,18.0283852 68.0821703,18.4829037 68.9187254,18.8017185 C69.7552804,19.1205333 70.667778,19.2805333 71.653845,19.2805333 C72.6547445,19.2805333 73.5850411,19.1205333 74.4447349,18.8017185 C75.3032421,18.4829037 76.0389359,18.0319407 76.6524096,17.4494222 C77.2646967,16.8674963 77.7464574,16.1729778 78.0976919,15.3670519 C78.4489263,14.5617185 78.6251368,13.672237 78.6251368,12.6980148 C78.6251368,11.7243852 78.4530794,10.8354963 78.1095579,10.0295704" id="Fill-15"></path>
                    </g>
                </g>
            </g>
        </g>
    </g>
</svg>