<?xml version="1.0" encoding="UTF-8"?>
<svg width="20px" height="20px" viewBox="0 0 20 20" version="1.1" xmlns="http://www.w3.org/2000/svg" xmlns:xlink="http://www.w3.org/1999/xlink">
    <!-- Generator: Sketch 60.1 (88133) - https://sketch.com -->
    <title>icon/cart</title>
    <desc>Created with Sketch.</desc>
    <g id="icon/cart" stroke="none" stroke-width="1" fill="none" fill-rule="evenodd">
        <g id="communications-(1)" transform="translate(1.000000, 1.000000)" fill="#606060" fill-rule="nonzero">
            <path d="M14,14 C12.9038462,14 12,14.8846154 12,16 C12,17.0961538 12.8846154,18 14,18 C15.0961538,18 16,17.1153846 16,16 C15.9807692,14.9038462 15.0961538,14 14,14 Z" id="Path"></path>
            <path d="M17.3395401,3.12086093 C17.2991216,3.12086093 17.2384939,3.09933775 17.1778661,3.09933775 L4.44603593,3.09933775 L4.24394339,1.65728477 C4.12268786,0.710264901 3.3547362,0 2.44531976,0 L0.808370169,0 C0.363766576,0 0,0.387417219 0,0.860927152 C0,1.33443709 0.363766576,1.7218543 0.808370169,1.7218543 L2.44531976,1.7218543 C2.54636603,1.7218543 2.62720305,1.80794702 2.6474123,1.91556291 L3.90038606,10.9983444 C4.0620601,12.1390728 4.99168579,13 6.08298552,13 L14.4900353,13 C15.5409165,13 16.4503329,12.2036424 16.6726347,11.1059603 L17.9862363,4.11092715 C18.0670733,3.6589404 17.7841437,3.20695364 17.3395401,3.12086093 Z" id="Path"></path>
            <path d="M7.99720988,15.9130435 C7.95784121,14.8502415 7.0523619,14 5.96972359,14 C4.82803229,14.057971 3.96192164,14.9855072 4.00129031,16.0869565 C4.04065897,17.1497585 4.92645395,18 6.00909226,18 L6.04846092,18 C7.1704679,17.942029 8.05626287,17.0144928 7.99720988,15.9130435 Z" id="Path"></path>
        </g>
    </g>
</svg>